<?xml version="1.0" standalone="no"?>
<!DOCTYPE svg PUBLIC "-//W3C//DTD SVG 20010904//EN"
 "http://www.w3.org/TR/2001/REC-SVG-20010904/DTD/svg10.dtd">
<svg version="1.0" xmlns="http://www.w3.org/2000/svg"
 width="192.000000pt" height="192.000000pt" viewBox="0 0 192.000000 192.000000"
 preserveAspectRatio="xMidYMid meet">

<g transform="translate(0.000000,192.000000) scale(0.100000,-0.100000)"
fill="#000000" stroke="none">
<path d="M0 960 l0 -960 960 0 960 0 0 960 0 960 -960 0 -960 0 0 -960z m762
631 c9 -11 33 -23 53 -27 59 -11 149 -41 152 -51 2 -5 -31 -20 -72 -33 -42
-13 -78 -27 -81 -31 -2 -4 16 -72 41 -152 46 -147 52 -177 37 -177 -8 0 -79
214 -98 293 -3 15 -9 27 -13 27 -4 0 -41 -11 -82 -25 -41 -14 -79 -24 -86 -23
-7 2 18 42 56 90 50 63 68 93 64 108 -7 25 8 26 29 1z m543 -190 c-3 -6 -16
-16 -28 -22 -20 -10 -20 -9 3 14 25 24 38 28 25 8z m-253 -12 c29 -6 61 -16
71 -21 35 -18 9 -19 -49 -2 -41 12 -81 15 -141 12 -46 -2 -80 -1 -76 3 22 20
119 24 195 8z m-262 -33 c0 -4 -68 -46 -76 -46 -15 0 1 19 29 33 33 16 47 20
47 13z m473 -4 c-8 -5 -9 -13 -3 -22 25 -39 -4 -91 -49 -89 -23 2 -23 2 -4 6
31 6 46 29 39 57 -14 57 -81 38 -74 -21 5 -40 1 -42 -13 -7 -14 39 10 72 58
77 21 2 43 4 48 5 6 1 5 -2 -2 -6z m-538 -67 c100 -19 111 -23 99 -35 -7 -7
-36 -5 -85 4 -86 16 -103 10 -87 -34 24 -69 162 -158 259 -166 26 -2 67 -8 92
-13 82 -19 208 13 261 66 34 33 24 50 -35 58 -32 5 -49 12 -49 21 0 11 9 13
43 8 105 -17 120 -37 68 -97 -48 -53 -118 -79 -238 -86 -56 -3 -103 -8 -105
-11 -3 -3 -9 -20 -14 -38 -12 -46 -30 -36 -26 14 l4 42 -64 21 c-114 38 -206
115 -228 192 -11 37 -5 69 13 69 7 0 48 -7 92 -15z m276 -50 c107 -20 115 -23
102 -36 -7 -7 -38 -5 -99 6 -109 20 -117 22 -109 35 8 13 7 13 106 -5z m342
-41 c47 -73 77 -168 77 -250 0 -89 -15 -81 -17 9 -2 84 -27 162 -79 238 -36
54 -38 59 -26 59 4 0 24 -25 45 -56z m-566 25 c35 -6 63 -15 63 -21 0 -5 -13
-7 -30 -4 -16 3 -43 9 -60 12 -41 8 -38 -8 8 -39 116 -81 305 -110 412 -64
l35 15 -32 7 c-49 11 -41 28 10 20 56 -9 65 -20 32 -41 -65 -42 -173 -54 -287
-29 -92 19 -148 46 -202 95 -69 64 -63 69 51 49z m-201 -61 c-37 -64 -58 -160
-54 -245 3 -72 -4 -94 -16 -50 -3 12 -6 54 -6 94 0 74 20 143 62 211 29 48 43
39 14 -10z m427 21 c31 -7 57 -16 57 -20 0 -11 -5 -11 -76 2 -61 12 -95 29
-58 29 12 0 46 -5 77 -11z m117 -14 c-7 -8 -17 -15 -23 -15 -6 0 -2 7 9 15 25
19 30 19 14 0z m-30 -39 c0 -2 -7 -9 -15 -16 -13 -11 -14 -10 -9 4 5 14 24 23
24 12z m220 -206 c0 -16 -9 -50 -20 -76 -12 -26 -19 -57 -18 -68 3 -18 9 -13
38 27 33 45 69 66 56 31 -11 -28 3 -56 25 -49 10 4 19 2 19 -4 0 -17 -55 -41
-92 -39 -19 1 -40 -2 -46 -6 -6 -3 -13 -2 -17 4 -4 7 -13 6 -27 -1 -11 -6 -29
-9 -39 -6 -10 3 -21 2 -24 -2 -2 -5 -26 -7 -52 -6 -26 1 -56 -2 -66 -7 -12 -6
-23 -6 -30 1 -8 6 -18 6 -27 1 -25 -16 -60 -12 -61 8 0 13 -3 12 -11 -5 -11
-24 -38 -32 -38 -11 0 6 -9 3 -20 -7 -27 -25 -70 -7 -70 29 0 14 -5 28 -12 32
-7 5 -8 3 -4 -5 10 -16 -12 -68 -31 -75 -9 -4 -21 -2 -28 4 -10 8 -23 4 -50
-15 -100 -67 -171 15 -114 132 12 25 34 50 51 59 27 14 32 14 54 -1 29 -18 31
-54 7 -83 -20 -23 -54 -33 -60 -17 -1 6 7 15 19 20 25 11 36 41 20 57 -26 26
-82 -54 -82 -115 0 -75 109 -54 135 26 9 30 14 32 55 32 25 1 55 6 66 13 17 9
25 8 40 -3 18 -13 18 -15 2 -32 -17 -17 -18 -17 -18 0 0 10 -4 15 -10 12 -13
-8 -13 -52 0 -60 21 -13 50 34 50 84 0 58 16 107 37 116 29 11 38 -11 27 -65
-10 -46 -9 -49 6 -35 9 8 21 15 27 15 5 0 14 17 19 38 7 27 14 37 29 37 17 0
20 -6 19 -37 -1 -31 2 -38 18 -38 11 0 16 -4 13 -10 -3 -5 -17 -10 -31 -10
-21 0 -24 -5 -24 -36 0 -28 3 -35 17 -32 10 2 26 20 35 40 21 43 31 51 58 43
15 -5 20 -15 20 -42 0 -30 2 -34 15 -23 8 7 15 21 15 30 0 28 11 50 25 50 9 0
11 -13 7 -46 -3 -34 -2 -45 7 -40 6 4 11 29 11 56 0 44 -2 48 -21 43 -17 -5
-20 -2 -17 13 2 11 13 20 26 22 12 2 22 7 22 11 0 5 9 20 20 34 25 32 50 25
50 -13z m40 -224 c0 -25 -111 -136 -159 -161 -46 -23 -143 -55 -168 -55 -30 0
-10 18 26 24 88 14 203 86 263 165 36 46 38 47 38 27z m-473 -49 c-6 -43 -5
-44 58 -107 64 -64 82 -96 48 -86 -10 3 -83 17 -162 30 -79 14 -146 28 -149
30 -10 11 13 26 88 57 66 27 82 38 86 58 11 51 16 61 26 61 7 0 9 -16 5 -43z
m-168 -74 c2 -2 1 -6 -2 -9 -8 -8 -77 43 -77 57 0 6 17 -2 38 -18 20 -15 39
-28 41 -30z m273 -497 c6 4 8 -2 6 -12 -5 -26 -42 -25 -46 1 -3 16 -1 17 7 5
9 -13 11 -12 12 5 0 11 3 14 6 7 2 -6 9 -9 15 -6z m-292 -16 c9 -16 8 -18 -5
-14 -8 4 -15 12 -15 20 0 20 7 17 20 -6z m167 -2 c-3 -8 -6 -5 -6 6 -1 11 2
17 5 13 3 -3 4 -12 1 -19z m32 -2 c1 12 31 15 31 3 0 -9 -37 -19 -44 -11 -3 3
-6 12 -5 21 0 12 3 11 9 -4 5 -11 9 -15 9 -9z m139 3 c3 -12 2 -12 -6 0 -8 11
-10 11 -15 0 -4 -10 -6 -8 -6 4 -1 21 21 18 27 -4z m121 -2 c0 -8 -3 -7 -6 2
-4 11 -7 11 -14 0 -4 -7 -11 -10 -16 -6 -9 9 17 28 29 21 4 -3 8 -11 7 -17z
m-399 3 c0 -4 -9 -10 -20 -13 -11 -3 -18 -1 -15 3 3 5 -1 10 -7 13 -7 2 -1 4
15 4 15 0 27 -3 27 -7z m30 1 c0 -5 -6 -14 -14 -20 -12 -10 -13 -8 -9 8 5 21
23 30 23 12z m33 -5 c4 -10 1 -13 -9 -9 -7 3 -14 9 -14 14 0 14 17 10 23 -5z
m27 4 c0 -5 -2 -10 -4 -10 -3 0 -8 5 -11 10 -3 6 -1 10 4 10 6 0 11 -4 11 -10z
m259 -8 c0 -11 -3 -12 -6 -4 -2 6 -9 12 -14 12 -6 0 -7 -6 -3 -12 6 -10 5 -10
-8 -1 -8 7 -18 10 -21 6 -4 -3 -7 -2 -7 4 0 5 14 10 30 11 22 0 30 -4 29 -16z
m112 6 c0 -10 2 -10 6 0 6 15 53 16 53 1 0 -5 -4 -7 -10 -4 -5 3 -18 1 -29 -5
-13 -7 -22 -7 -26 0 -3 5 -11 10 -16 10 -6 0 -7 -5 -3 -12 4 -7 3 -8 -5 -4 -6
4 -9 12 -6 17 9 13 35 11 36 -3z"/>
<path d="M697 1488 c-26 -34 -46 -63 -44 -64 5 -5 257 80 257 86 0 7 -128 40
-150 40 -8 -1 -36 -28 -63 -62z"/>
<path d="M911 864 c0 -11 3 -14 6 -6 3 7 2 16 -1 19 -3 4 -6 -2 -5 -13z"/>
<path d="M1108 794 c-5 -4 -8 -19 -8 -33 1 -23 2 -24 11 -8 11 19 9 53 -3 41z"/>
<path d="M1326 781 c-4 -7 -5 -15 -2 -18 9 -9 19 4 14 18 -4 11 -6 11 -12 0z"/>
<path d="M972 768 c-6 -6 -12 -19 -12 -27 0 -13 2 -13 16 1 9 9 15 21 13 27
-3 9 -8 8 -17 -1z"/>
<path d="M727 763 c-13 -13 -7 -53 8 -53 10 0 15 10 15 30 0 29 -9 38 -23 23z"/>
<path d="M808 563 c-21 -9 -38 -21 -38 -29 0 -19 127 -44 144 -27 6 7 -53 74
-63 72 -4 -1 -23 -8 -43 -16z"/>
</g>
</svg>
