<?xml version="1.0" standalone="no"?>
<!DOCTYPE svg PUBLIC "-//W3C//DTD SVG 20010904//EN"
 "http://www.w3.org/TR/2001/REC-SVG-20010904/DTD/svg10.dtd">
<svg version="1.0" xmlns="http://www.w3.org/2000/svg"
 width="2000.000000pt" height="2000.000000pt" viewBox="0 0 2000.000000 2000.000000"
 preserveAspectRatio="xMidYMid meet">

<g transform="translate(0.000000,2000.000000) scale(0.100000,-0.100000)"
fill="#000000" stroke="none">
<path d="M0 10000 l0 -10000 10000 0 10000 0 0 10000 0 10000 -10000 0 -10000
0 0 -10000z m7765 6786 c42 -18 46 -25 101 -198 26 -79 51 -146 58 -150 6 -4
7 -8 1 -8 -14 -2 92 -30 360 -99 181 -46 253 -60 336 -65 163 -9 343 -55 422
-109 53 -36 58 -37 552 -167 253 -66 474 -127 492 -135 67 -30 81 -124 24
-165 -15 -12 -404 -147 -866 -300 -461 -154 -842 -283 -846 -287 -8 -8 65
-257 244 -833 47 -151 160 -518 252 -815 91 -297 174 -565 184 -595 11 -30 45
-140 76 -245 32 -104 64 -198 72 -207 8 -9 12 -21 9 -26 -3 -5 33 -137 79
-292 78 -257 85 -286 74 -317 -12 -38 -59 -73 -99 -73 -43 0 -86 34 -104 82
-9 23 -67 210 -130 413 -63 204 -155 501 -204 660 -49 160 -144 468 -211 685
-67 217 -197 640 -289 940 l-168 545 -27 -3 c-15 -1 -413 -131 -886 -287 -503
-167 -874 -285 -896 -285 -71 0 -117 79 -83 143 6 12 82 110 167 217 226 282
755 940 896 1115 209 259 345 436 345 452 0 8 -18 74 -40 147 -47 157 -50 193
-15 235 22 26 35 32 78 40 4 0 23 -5 42 -13z m2708 -2221 c457 -44 942 -160
1315 -315 115 -48 137 -69 137 -133 0 -31 -7 -45 -33 -68 -44 -39 -77 -37
-198 10 -545 212 -1083 313 -1674 313 -340 1 -573 -21 -897 -84 l-161 -31 -34
20 c-60 35 -68 122 -14 169 49 43 460 110 816 134 177 11 545 4 743 -15z
m-2250 -390 c31 -31 39 -69 24 -115 -13 -38 -15 -40 -217 -133 -126 -59 -315
-163 -454 -251 -105 -65 -146 -72 -194 -31 -59 50 -48 126 26 177 123 85 426
250 612 335 114 51 164 56 203 18z m4532 -70 c116 -24 208 -76 302 -170 66
-66 90 -99 123 -166 121 -253 82 -516 -107 -708 -41 -42 -71 -69 -67 -61 4 8
-3 5 -15 -7 -12 -13 -27 -23 -33 -23 -7 0 -3 7 8 15 10 8 -11 1 -49 -15 -111
-50 -247 -77 -247 -50 0 6 -7 10 -16 10 -9 0 -12 5 -8 12 4 7 3 8 -4 4 -15 -9
-82 4 -82 16 0 5 12 7 28 3 41 -8 162 19 235 53 l62 29 -32 7 c-47 11 -51 36
-11 66 60 44 123 117 150 173 128 260 -37 572 -325 617 -89 14 -160 1 -252
-45 -82 -41 -109 -64 -153 -128 -18 -26 -38 -47 -45 -47 -7 0 -5 6 5 14 10 7
15 16 11 19 -3 4 -12 2 -20 -5 -11 -9 -12 -7 -4 15 6 15 8 35 4 44 -3 11 2 8
13 -7 10 -14 18 -29 16 -33 -1 -5 2 -6 8 -2 8 5 8 11 0 20 -8 10 -8 15 0 20 8
5 8 10 0 20 -8 10 -7 14 2 18 7 3 3 4 -8 4 -15 -1 -20 -6 -16 -17 3 -8 2 -12
-3 -8 -11 11 -36 -12 -28 -25 3 -6 1 -7 -5 -3 -15 9 -67 -95 -87 -171 -8 -31
-15 -80 -15 -108 l0 -50 -15 29 c-8 15 -15 37 -15 48 0 10 -4 17 -9 14 -18
-12 -22 64 -6 125 20 76 43 124 102 208 35 50 41 66 31 73 -9 6 -6 7 9 3 23
-6 40 9 22 21 -8 5 -9 3 -4 -7 5 -8 6 -12 2 -9 -3 3 -6 10 -6 15 -1 13 22 13
32 0 6 -6 7 -3 4 6 -8 24 37 63 114 99 124 58 267 74 404 45z m-505 -319 c0
-3 -4 -8 -10 -11 -5 -3 -10 -1 -10 4 0 6 5 11 10 11 6 0 10 -2 10 -4z m-5639
-267 c30 -6 92 -12 139 -14 108 -4 102 -3 96 -14 -4 -5 3 -7 13 -4 11 3 46 -3
78 -13 32 -10 63 -18 68 -19 6 0 16 -4 24 -9 10 -7 12 -5 6 3 -6 10 -3 11 13
2 11 -6 37 -12 56 -13 20 -2 36 -6 36 -9 0 -3 6 -6 13 -6 6 0 26 -3 42 -7 201
-40 230 -44 237 -33 4 6 4 15 2 19 -3 4 2 5 9 2 8 -3 18 -15 21 -27 5 -18 8
-20 16 -7 7 12 10 12 10 1 0 -7 6 -11 15 -8 8 4 17 2 20 -4 4 -5 12 -9 18 -8
7 1 23 -1 37 -5 14 -3 41 -9 60 -11 60 -9 134 -21 175 -30 42 -10 426 -84 570
-110 140 -26 152 -30 184 -62 30 -30 33 -38 28 -76 -4 -30 -15 -50 -37 -69
-36 -33 -63 -35 -178 -13 -44 9 -97 17 -119 20 -66 8 -104 15 -114 20 -5 3
-18 1 -31 -6 -17 -9 -24 -9 -33 5 -13 17 -202 57 -237 51 -10 -2 -18 -1 -18 3
0 4 -8 8 -17 8 -10 0 -29 4 -42 8 -16 6 -21 5 -17 -3 4 -6 2 -9 -6 -6 -31 11
-138 12 -138 1 0 -6 -4 -5 -9 2 -6 10 -30 13 -90 10 -72 -3 -81 -1 -81 15 0
18 5 19 58 19 59 -1 21 13 -60 22 -16 2 -30 5 -33 6 -13 7 -127 24 -139 22 -4
-2 -13 1 -20 6 -19 15 -88 23 -79 9 5 -9 2 -8 -9 0 -8 7 -18 10 -21 6 -4 -3
-7 -2 -7 3 0 5 -21 7 -46 5 -32 -2 -49 1 -55 10 -6 10 -9 11 -9 2 0 -7 -7 -13
-16 -13 -18 0 -109 -37 -143 -59 l-24 -15 22 -10 c29 -13 26 -22 -10 -30 -16
-3 -36 -11 -43 -18 -22 -23 -96 -173 -86 -176 5 -2 4 -11 -3 -23 -9 -15 -8
-32 5 -82 21 -81 101 -252 122 -260 8 -3 14 -12 11 -19 -3 -7 5 -24 16 -38 11
-14 17 -19 13 -11 -5 10 -3 12 5 7 7 -5 10 -14 7 -21 -7 -20 13 -32 66 -39 45
-7 77 -26 44 -26 -22 0 -20 -13 4 -35 12 -11 18 -25 15 -34 -3 -8 -3 -13 0 -9
9 8 45 -23 45 -38 0 -7 7 -15 16 -18 9 -4 14 -9 10 -13 -3 -3 3 -13 15 -21 11
-7 18 -19 16 -25 -2 -7 3 -18 10 -26 8 -7 12 -20 9 -28 -3 -7 1 -16 9 -19 8
-4 12 -11 8 -17 -4 -6 0 -8 9 -5 8 4 22 -2 31 -13 9 -10 13 -19 7 -19 -5 0
-14 8 -19 18 -6 9 -10 13 -10 7 0 -12 141 -152 224 -222 131 -110 254 -195
216 -149 -9 11 -9 16 0 22 7 4 9 3 6 -3 -4 -6 2 -18 13 -28 11 -10 20 -14 20
-8 0 6 19 6 55 0 48 -9 53 -12 44 -29 -7 -14 -6 -18 5 -18 8 0 16 -5 18 -11 2
-5 12 -11 22 -13 11 -1 23 -11 27 -22 5 -13 8 -14 8 -4 1 13 3 13 10 0 6 -8 7
-19 4 -25 -3 -5 0 -4 8 3 14 13 53 17 46 5 -3 -5 1 -14 9 -21 9 -8 14 -9 14
-2 0 6 12 5 30 -5 16 -8 35 -15 41 -15 7 0 20 -6 28 -14 9 -8 25 -16 36 -18
11 -1 44 -18 73 -35 29 -18 56 -33 60 -33 5 0 33 -13 63 -28 31 -16 60 -27 66
-25 5 2 16 -3 23 -12 7 -8 18 -15 24 -15 7 0 29 -9 50 -20 22 -10 43 -17 48
-14 5 3 16 0 24 -7 9 -7 23 -14 32 -15 16 -3 44 -14 92 -39 14 -7 36 -15 50
-17 14 -1 27 -5 30 -8 7 -8 119 -50 150 -56 41 -9 44 -21 5 -28 -19 -4 -33
-11 -30 -16 5 -8 95 -26 103 -21 1 1 9 -5 18 -13 8 -8 21 -13 29 -10 8 3 30
-3 48 -15 19 -12 43 -21 54 -21 12 0 26 -7 33 -15 7 -8 17 -12 22 -9 6 4 14 1
18 -6 17 -28 66 -31 720 -44 113 -2 219 -9 235 -14 27 -9 25 -10 -27 -11 -76
-1 -74 -18 2 -27 33 -4 60 -9 60 -13 0 -3 21 -7 48 -7 63 -2 147 -12 202 -24
25 -5 63 -8 84 -6 26 3 35 1 25 -5 -9 -6 2 -9 36 -9 28 -1 98 -5 158 -9 92 -6
110 -10 122 -28 13 -18 46 -30 128 -48 24 -5 28 -2 33 25 4 16 9 30 13 30 12
0 32 -41 24 -53 -5 -9 -3 -9 8 -1 8 5 30 11 49 12 24 2 31 0 21 -7 -10 -6 -5
-8 16 -7 16 2 34 5 39 8 5 2 25 4 46 4 20 -1 34 2 32 6 -2 3 23 9 56 13 33 4
63 11 66 16 3 5 18 9 33 9 15 0 31 4 36 8 9 8 98 26 180 36 17 2 48 9 70 15
42 11 170 25 217 23 41 -2 157 25 176 40 15 12 16 11 3 -4 -12 -16 -11 -18 3
-18 9 0 16 6 16 13 0 19 90 35 203 35 64 0 115 6 150 18 67 22 266 116 292
139 11 9 13 13 5 9 -12 -6 -13 -4 -2 7 6 7 12 25 12 40 0 31 27 60 39 41 5 -9
12 -7 26 8 20 22 41 28 29 8 -6 -9 -3 -9 9 0 9 8 21 11 26 7 6 -3 8 0 5 8 -6
16 4 25 69 61 27 14 46 21 42 14 -4 -7 -1 -6 7 2 13 15 71 50 83 50 3 0 3 -6
-1 -12 -4 -8 -3 -10 2 -5 5 5 10 13 10 18 1 5 2 12 3 15 0 4 8 1 16 -6 8 -7
15 -11 16 -9 0 2 2 12 4 22 4 21 42 57 60 57 6 0 22 11 34 24 16 17 21 31 16
48 -3 12 -3 19 2 13 4 -5 14 -11 22 -13 11 -2 12 0 3 11 -14 16 -6 27 20 27
10 0 18 5 18 12 0 6 8 20 17 30 10 11 13 19 8 18 -21 -5 -29 1 -15 10 13 8 12
10 -2 10 -28 0 -21 17 11 28 25 9 29 15 29 49 0 21 3 52 6 70 5 25 2 34 -13
42 -10 6 -22 23 -26 38 -13 53 -74 119 -141 153 -35 17 -70 33 -77 34 -8 1
-26 9 -40 19 -15 9 -30 17 -34 17 -4 0 -1 -4 7 -10 8 -5 11 -12 7 -16 -8 -8
-39 15 -33 25 2 3 -11 6 -29 7 -22 0 -32 -3 -28 -10 4 -6 -1 -5 -10 3 -13 10
-20 11 -31 2 -12 -10 -13 -8 -9 10 5 19 4 20 -14 11 -15 -8 -25 -7 -41 4 -12
8 -22 12 -22 8 0 -3 -6 -1 -14 5 -11 10 -16 9 -23 -4 -10 -18 -43 -10 -43 10
0 9 -56 23 -172 45 -208 38 -229 44 -255 73 -46 50 -32 131 28 162 40 21 27
23 484 -60 198 -36 377 -67 397 -68 20 -1 40 -6 44 -10 12 -12 26 -8 18 6 -6
8 -3 8 9 -2 9 -7 40 -15 69 -17 28 -2 56 -8 62 -14 14 -14 29 -12 20 3 -6 9
-5 9 8 -1 8 -6 28 -14 44 -17 25 -4 124 -24 192 -40 13 -3 35 -18 48 -32 29
-32 31 -82 8 -185 -9 -38 -17 -75 -19 -82 -1 -6 -6 -20 -10 -31 -5 -11 -16
-41 -26 -67 -43 -111 -123 -248 -213 -363 -55 -70 -192 -212 -218 -226 -11 -6
-16 -15 -12 -22 4 -7 4 -9 -1 -5 -8 8 -40 -20 -40 -36 -1 -6 -7 -10 -14 -8 -7
1 -43 -19 -79 -45 -102 -74 -124 -89 -159 -107 -24 -12 -31 -21 -26 -34 3 -9
3 -14 -1 -10 -11 9 -57 -8 -186 -70 -183 -87 -359 -153 -595 -221 -143 -41
-451 -103 -580 -117 -22 -2 -56 -7 -75 -11 -61 -11 -226 -25 -307 -25 -29 0
-51 -3 -49 -7 2 -3 -21 -5 -52 -4 -31 1 -64 -3 -75 -8 -13 -7 -23 -7 -32 1
-16 14 -255 10 -255 -3 0 -5 -6 -5 -12 0 -12 6 -149 13 -265 13 -23 -1 -44 4
-47 9 -6 9 -39 7 -80 -5 -10 -4 -16 -2 -13 3 3 5 -3 9 -13 9 -10 0 -16 -4 -13
-9 3 -5 0 -7 -8 -5 -8 3 -13 11 -11 17 1 7 -2 10 -8 6 -6 -3 -8 -11 -5 -16 4
-5 1 -9 -4 -9 -6 0 -11 6 -12 13 0 8 -2 8 -6 -2 -5 -11 -7 -11 -14 0 -7 11 -9
11 -9 1 0 -7 -4 -11 -8 -8 -25 15 -244 -81 -262 -114 -5 -10 -16 -24 -23 -32
-23 -23 -57 -76 -57 -87 0 -6 12 -11 27 -11 27 0 27 0 -10 -25 -20 -14 -37
-30 -37 -35 0 -5 -13 -25 -30 -43 -16 -19 -30 -39 -30 -44 0 -5 -9 -15 -20
-23 -15 -11 -17 -17 -7 -29 7 -9 7 -12 1 -8 -12 7 -20 -25 -54 -213 -12 -63
-26 -128 -32 -143 -35 -90 -160 -89 -198 3 -11 25 -9 51 14 172 14 79 28 159
30 178 2 19 7 44 11 55 6 17 5 18 -5 5 -9 -12 -11 -9 -6 18 4 23 2 31 -6 26
-8 -5 -9 -2 -5 11 5 11 -1 31 -13 52 -24 41 -24 43 -6 43 24 0 27 15 14 89 -8
50 -17 73 -29 76 -9 3 -22 24 -28 47 -7 23 -23 57 -36 77 -23 38 -111 120
-129 122 -6 1 -20 2 -31 3 -12 0 -21 9 -23 22 -3 18 -18 25 -90 44 -48 13
-127 36 -176 51 -49 16 -93 26 -99 22 -6 -3 -7 -1 -3 5 4 7 1 13 -8 13 -24 2
-30 4 -41 10 -5 4 -35 14 -65 24 -30 10 -99 35 -153 57 -54 21 -103 35 -109
32 -6 -4 -8 -3 -5 2 3 6 -40 29 -96 54 -143 61 -354 166 -492 246 -65 37 -124
67 -131 67 -8 0 -12 3 -9 5 6 6 -256 184 -272 185 -7 0 -13 4 -13 8 0 10 -171
145 -178 141 -4 -2 -9 3 -12 10 -3 8 -41 46 -85 85 -44 39 -104 94 -133 122
-29 28 -50 46 -46 39 4 -7 3 -8 -5 -4 -6 4 -9 11 -7 15 3 4 -20 34 -50 66 -30
33 -54 61 -54 63 0 2 -20 28 -45 59 -125 153 -254 384 -318 568 -41 121 -82
301 -79 357 0 15 -4 27 -10 25 -6 -1 -13 4 -15 11 -3 6 3 12 12 12 13 0 16 6
11 24 -8 33 11 251 27 306 9 31 23 51 46 67 39 26 41 27 112 12z m6935 -482
c12 -7 57 -53 100 -102 611 -698 1008 -1567 1138 -2490 37 -259 41 -334 40
-685 0 -253 -5 -391 -16 -481 -15 -129 -37 -186 -65 -175 -8 3 -12 2 -8 -3 8
-14 -48 -23 -77 -12 -14 5 -35 23 -47 40 -25 34 -25 10 -1 346 24 333 -1 776
-65 1120 -147 800 -516 1576 -1029 2163 -112 128 -126 148 -126 191 0 47 55
101 102 101 18 -1 43 -6 54 -13z m-4011 -52 c43 -9 85 -13 92 -11 7 3 15 0 19
-6 4 -7 9 -6 15 3 5 8 9 9 9 3 0 -7 19 -8 61 -2 42 5 66 5 75 -3 7 -6 36 -11
65 -11 42 1 50 -2 45 -15 -5 -13 -4 -14 8 -4 11 10 20 10 36 1 15 -8 25 -9 32
-2 10 10 19 9 56 -5 9 -4 24 -8 32 -9 8 -1 44 -7 80 -14 36 -6 87 -14 113 -17
34 -4 47 -10 43 -19 -3 -9 2 -11 17 -8 28 7 36 7 72 -1 17 -4 39 -8 50 -9 12
-1 26 -6 33 -10 7 -4 16 -4 22 -1 5 3 27 2 47 -4 21 -5 67 -14 103 -20 36 -6
82 -13 102 -17 21 -3 36 -10 33 -14 -7 -11 22 -33 35 -25 16 10 51 -5 44 -18
-5 -8 -2 -8 7 1 7 6 18 12 24 12 5 0 3 -5 -5 -10 -8 -5 -10 -10 -5 -11 6 0 22
-2 37 -4 23 -3 28 1 33 26 8 35 22 37 35 7 5 -13 9 -20 9 -15 1 4 13 1 29 -6
15 -8 59 -22 99 -32 40 -10 70 -22 67 -27 -3 -4 -2 -8 1 -8 20 0 214 -42 238
-52 51 -20 71 -91 42 -148 -28 -54 -71 -61 -210 -34 -44 8 -92 13 -107 10 -15
-3 -30 -1 -33 4 -4 6 -10 8 -15 5 -5 -3 -11 -1 -15 4 -3 7 -15 7 -29 1 -13 -5
-34 -6 -47 -3 -19 4 -21 3 -9 -6 19 -14 -80 -5 -148 13 -27 7 -68 11 -92 10
-24 -1 -37 1 -31 6 17 10 -12 17 -66 15 -23 0 -40 1 -38 4 1 4 -15 7 -38 8
-22 2 -43 6 -46 11 -22 30 -121 40 -484 50 -32 1 -56 6 -53 11 3 5 -25 12 -62
15 -76 8 -182 37 -259 72 -28 13 -58 24 -66 24 -8 0 -22 10 -31 23 -9 12 -14
17 -11 10 3 -7 -2 -9 -16 -6 -14 4 -17 8 -8 13 7 5 -30 18 -87 31 -122 28
-154 53 -154 121 0 44 18 76 55 96 27 15 56 15 150 -3z m-1990 -184 c182 -33
492 -90 690 -126 198 -37 376 -69 395 -72 52 -9 88 -30 105 -63 20 -38 19 -58
-4 -96 -39 -65 -16 -66 -691 56 -337 61 -617 109 -622 108 -14 -5 106 -141
218 -247 511 -484 1355 -861 2271 -1015 356 -60 487 -70 923 -71 332 0 431 3
550 18 414 52 723 134 996 266 107 52 210 111 193 111 -4 0 -161 29 -350 65
-310 58 -345 66 -368 90 -51 51 -25 152 44 169 20 5 920 -152 977 -170 32 -10
58 -54 58 -99 0 -39 -5 -47 -56 -94 -119 -109 -370 -255 -576 -335 -288 -112
-683 -196 -1062 -226 -167 -13 -624 -13 -797 0 -1234 95 -2399 564 -3034 1222
-123 127 -222 256 -287 375 -41 74 -47 116 -22 152 20 28 71 51 99 46 11 -3
169 -31 350 -64z m1680 -80 c5 -10 4 -12 -3 -7 -8 5 -12 -2 -12 -18 0 -14 5
-26 10 -26 14 0 12 -28 -2 -33 -10 -3 -10 -7 1 -20 11 -14 11 -20 1 -32 -7 -9
-10 -18 -6 -22 3 -3 6 0 6 7 0 7 2 11 5 8 8 -7 -5 -38 -16 -38 -5 0 -8 60 -8
133 1 79 4 118 8 97 4 -20 11 -42 16 -49z m-3017 -177 c25 -17 42 -52 42 -90
0 -14 -35 -79 -84 -152 -116 -177 -195 -318 -297 -527 -185 -384 -298 -732
-384 -1190 -60 -319 -70 -440 -70 -825 0 -333 12 -513 44 -686 6 -31 5 -44 -3
-45 -7 0 -6 -3 2 -6 19 -7 14 -23 -5 -16 -14 4 -12 0 5 -17 17 -16 22 -29 18
-46 -3 -12 -1 -26 4 -29 6 -4 8 -15 5 -26 -4 -11 -2 -19 4 -19 6 0 11 -20 11
-46 0 -25 -4 -43 -9 -40 -5 3 -8 -2 -7 -12 0 -9 -5 -16 -12 -14 -8 1 -11 -2
-7 -8 9 -15 -60 -42 -90 -34 -14 3 -25 10 -25 15 0 5 -5 8 -11 6 -24 -5 -48
67 -73 214 -48 284 -57 391 -63 736 -6 348 1 494 38 783 11 85 22 198 24 250
2 52 13 126 24 163 10 38 17 77 14 88 -4 13 0 19 10 19 20 0 35 32 92 210 75
229 168 458 280 685 154 315 378 674 412 661 7 -3 11 -2 8 3 -15 25 64 20 103
-5z m3806 -194 c243 -45 527 -97 631 -116 422 -77 397 -71 428 -104 46 -51 29
-134 -33 -160 -31 -13 -232 21 -1279 215 -258 48 -276 56 -287 126 -8 53 39
115 90 118 5 1 207 -35 450 -79z m1096 40 c-36 -3 -69 -3 -75 0 -14 7 106 17
125 10 8 -3 -14 -7 -50 -10z m1875 -298 c-3 -3 -11 0 -18 7 -9 10 -8 11 6 5
10 -3 15 -9 12 -12z m315 -456 c0 -2 -7 -9 -15 -16 -13 -11 -14 -10 -9 4 5 14
24 23 24 12z m197 -1678 c12 -11 24 -32 28 -46 4 -15 7 -29 8 -32 1 -3 16 -17
33 -33 51 -44 67 -96 72 -234 9 -253 -55 -488 -268 -973 -181 -412 -199 -466
-188 -565 6 -50 44 -134 65 -142 25 -10 142 55 159 90 9 17 60 76 113 132 99
102 146 170 310 439 150 247 188 288 277 302 100 15 164 -23 164 -96 0 -46
-21 -92 -81 -177 -48 -69 -48 -85 8 -226 30 -78 37 -111 46 -220 9 -114 12
-126 26 -114 9 8 70 46 136 85 67 38 144 89 173 111 60 48 54 57 72 -109 l11
-105 -43 -38 c-45 -40 -167 -117 -255 -161 -175 -87 -358 -136 -514 -136 -127
0 -184 17 -235 69 l-37 37 -79 -47 c-146 -88 -268 -129 -344 -114 -43 8 -133
87 -166 146 l-21 38 -56 -48 c-164 -140 -358 -224 -481 -207 -54 8 -114 46
-135 86 l-16 31 -59 -54 c-166 -150 -309 -156 -413 -18 l-43 58 -65 -61 c-88
-84 -192 -137 -279 -144 -100 -7 -161 16 -232 89 l-56 58 -56 -39 c-156 -109
-303 -180 -374 -180 -89 0 -183 58 -242 148 l-31 48 -77 -76 c-195 -192 -507
-252 -626 -120 -42 47 -61 126 -52 212 4 32 5 62 2 67 -3 5 -21 2 -40 -7 -29
-13 -42 -31 -83 -116 -129 -271 -138 -281 -230 -281 -50 0 -57 3 -88 36 -24
26 -36 53 -45 95 -6 33 -15 74 -18 91 l-7 33 -55 -63 c-85 -98 -168 -164 -259
-210 -84 -42 -85 -42 -195 -42 -104 0 -115 2 -178 32 -90 42 -159 113 -204
207 -38 80 -67 215 -59 275 15 110 14 149 -5 166 -10 9 -23 14 -28 11 -5 -3
-16 2 -23 12 -13 15 -12 16 4 3 9 -7 17 -11 17 -8 0 12 -84 66 -94 60 -6 -3
-8 -2 -4 2 7 7 -80 65 -97 65 -3 0 6 -23 21 -51 14 -29 28 -59 30 -68 73 -279
25 -519 -136 -682 -83 -84 -152 -118 -252 -126 -96 -7 -169 13 -237 67 -47 37
-104 104 -114 133 -2 7 -61 -48 -132 -121 -70 -73 -164 -159 -209 -191 -212
-153 -493 -244 -756 -245 -103 0 -124 3 -201 30 -231 82 -392 269 -465 539
-27 101 -30 336 -5 485 46 281 159 570 312 800 78 117 248 291 346 354 276
177 559 181 742 9 232 -218 192 -638 -89 -923 -130 -131 -253 -191 -400 -193
-140 -1 -179 31 -181 150 -2 113 4 118 137 118 99 0 114 3 166 28 144 71 247
222 256 377 8 137 -37 232 -132 276 -168 78 -396 -36 -551 -276 -255 -393
-362 -992 -228 -1277 37 -79 111 -155 185 -189 58 -26 72 -29 173 -29 228 1
418 90 680 321 61 53 147 128 193 167 l82 71 0 95 c0 179 51 312 160 421 210
210 557 210 835 0 37 -28 68 -50 70 -48 1 2 17 32 36 68 43 82 129 169 204
205 77 38 198 46 287 20 165 -51 236 -217 160 -379 -39 -83 -81 -116 -150
-116 -43 0 -54 4 -72 28 -20 25 -21 34 -15 119 8 115 -1 138 -52 130 -67 -11
-111 -77 -144 -212 -28 -117 -24 -295 8 -365 22 -50 80 -106 119 -116 44 -11
116 5 173 39 68 40 207 170 266 249 l45 60 0 263 c0 335 13 523 51 755 44 268
108 447 201 565 84 106 167 150 284 150 62 0 75 -3 108 -29 144 -109 120 -477
-69 -1050 -14 -43 -23 -81 -20 -84 3 -3 5 3 5 12 0 12 5 16 15 12 8 -3 15 0
16 7 0 9 2 8 6 -1 4 -10 8 -10 21 0 13 11 15 11 10 -3 -4 -9 -1 -16 7 -16 8 0
11 7 7 16 -3 9 -1 13 3 8 5 -4 20 4 34 17 29 27 99 66 119 66 10 0 12 11 7 44
-6 41 -5 46 21 62 31 21 144 43 221 44 92 0 99 7 113 102 55 382 181 679 314
742 96 45 203 1 263 -110 88 -161 77 -332 -37 -588 -27 -60 -48 -112 -45 -114
2 -3 79 0 171 7 119 7 171 8 180 0 21 -17 37 -77 30 -113 -12 -62 -23 -66
-277 -92 -127 -12 -232 -24 -233 -26 -1 -2 -27 -43 -58 -93 l-56 -90 9 -170
c15 -288 35 -357 116 -396 33 -16 53 -19 85 -14 55 9 154 61 243 128 l70 52
22 110 c27 135 50 201 116 330 42 84 65 115 141 191 104 104 186 151 279 161
55 6 58 5 98 -32 l42 -38 72 6 c142 12 155 -35 114 -415 -29 -271 -18 -368 44
-368 29 0 75 32 133 92 85 89 124 150 124 195 0 72 97 534 118 562 32 44 97
73 172 79 63 4 69 3 80 -19 17 -31 8 -129 -29 -319 -16 -85 -33 -182 -36 -215
-3 -33 -11 -99 -16 -147 -14 -112 1 -194 36 -210 37 -17 118 29 213 120 l81
77 -25 115 c-24 110 -25 124 -19 345 4 127 8 255 10 287 4 54 3 56 -21 53 -13
-1 -24 1 -24 5 0 4 -14 7 -32 6 -17 0 -33 5 -35 11 -5 15 38 27 92 26 l40 -1
-30 13 c-17 7 -26 14 -22 14 4 1 3 10 -3 22 -7 11 -18 18 -25 15 -9 -3 -12 1
-10 14 5 23 -17 20 -47 -7 -41 -38 -92 -56 -163 -60 -59 -4 -77 -1 -115 19
-62 32 -93 91 -88 170 5 76 40 127 109 162 99 49 263 28 290 -37 9 -21 14 -25
20 -15 5 7 9 18 9 23 0 6 -5 3 -10 -5 -7 -11 -10 -12 -10 -2 0 8 9 16 19 19
11 3 29 26 40 51 12 26 30 63 41 82 47 86 90 185 86 197 -3 8 5 18 20 25 14 7
35 30 46 52 11 23 34 57 49 78 16 20 25 38 19 40 -6 2 13 31 42 65 131 155
282 219 355 151z m-5362 -2018 c-3 -5 -12 -10 -18 -10 -7 0 -6 4 3 10 19 12
23 12 15 0z m5 -30 c0 -5 -4 -10 -10 -10 -5 0 -10 5 -10 10 0 6 5 10 10 10 6
0 10 -4 10 -10z m65 -40 c1 -11 -2 -20 -7 -20 -4 0 -8 12 -8 27 0 30 13 24 15
-7z m5832 -503 c7 -5 11 -13 8 -17 -2 -4 4 -15 15 -25 27 -25 25 -71 -4 -110
-17 -22 -22 -36 -15 -46 8 -12 10 -12 18 1 7 10 6 17 -2 22 -7 4 -3 6 10 5 24
-1 19 -14 -22 -50 -11 -10 -14 -16 -6 -12 9 5 8 -1 -4 -19 -17 -25 -34 -38
-19 -14 4 7 3 8 -5 4 -6 -4 -9 -11 -6 -16 13 -22 -228 -345 -248 -333 -6 3 -7
1 -3 -5 14 -23 -288 -362 -470 -527 -54 -49 -101 -93 -104 -96 -3 -3 -79 -68
-170 -144 -91 -75 -169 -143 -173 -151 -4 -8 -15 -14 -23 -14 -8 0 -13 -4 -9
-9 3 -5 -4 -12 -15 -16 -11 -3 -25 -15 -31 -26 -5 -11 -15 -18 -22 -17 -15 3
-98 -36 -152 -72 -59 -39 -241 -138 -390 -213 -436 -217 -882 -363 -1367 -447
-220 -38 -222 -38 -264 4 -38 38 -44 77 -20 125 20 38 48 48 194 70 847 130
1639 505 2328 1102 94 82 326 312 409 406 20 24 42 40 48 36 6 -3 7 -1 3 5 -4
7 16 39 47 76 30 35 69 84 87 110 18 25 36 43 40 41 4 -2 7 1 7 8 0 20 85 127
96 120 6 -3 7 -1 3 5 -7 12 41 92 56 92 5 0 7 3 4 8 -8 13 22 44 36 37 10 -6
10 -5 1 5 -8 9 -5 20 13 47 13 20 32 42 42 49 19 15 61 15 79 1z m-4921 -186
c60 -37 62 -58 20 -289 -79 -435 -77 -416 -61 -468 8 -26 12 -51 9 -56 -3 -4
-2 -8 3 -8 4 0 14 -19 21 -42 8 -24 24 -67 38 -96 13 -29 24 -55 24 -57 0 -3
13 -24 30 -46 16 -23 27 -45 24 -50 -3 -5 3 -6 13 -2 16 6 16 5 4 -10 -11 -14
-11 -17 0 -18 21 -1 62 -9 77 -14 10 -4 10 -9 1 -26 -6 -12 -7 -19 -1 -15 5 3
18 -4 28 -16 11 -12 13 -18 7 -14 -30 17 -10 -4 22 -24 19 -12 35 -26 35 -31
0 -6 -6 -7 -12 -3 -7 4 -5 -2 6 -14 10 -12 22 -19 26 -17 4 3 20 -7 36 -20 16
-14 33 -25 38 -25 5 0 6 -3 3 -6 -4 -4 -15 -1 -24 6 -10 7 2 -6 27 -29 25 -23
55 -46 68 -51 13 -6 21 -14 18 -19 -3 -4 4 -17 17 -27 15 -13 19 -14 12 -3 -6
8 -1 4 10 -9 46 -57 65 -75 65 -61 1 10 5 8 15 -5 8 -10 12 -22 10 -26 -2 -4
6 -6 18 -6 31 3 40 -4 27 -19 -7 -9 -6 -16 6 -26 21 -17 46 -21 38 -6 -4 7 2
3 13 -8 11 -11 16 -22 11 -24 -5 -1 -1 -10 9 -18 10 -8 12 -11 4 -7 -9 5 -12
3 -7 -4 4 -7 14 -12 22 -12 8 0 13 -4 9 -9 -3 -6 3 -8 14 -6 15 3 18 -1 14
-12 -5 -13 -3 -13 15 -4 17 9 21 9 16 -2 -3 -8 3 -20 13 -28 16 -12 17 -12 8
1 -5 9 -3 8 7 -2 9 -10 21 -18 27 -18 6 0 11 -3 11 -8 0 -10 57 -40 93 -48 16
-4 26 -12 24 -18 -3 -7 4 -23 15 -37 11 -13 16 -17 12 -9 -10 22 76 -73 106
-115 14 -20 31 -42 37 -50 7 -7 15 -24 17 -37 2 -13 10 -22 17 -20 8 2 11 0 6
-4 -4 -4 18 -34 49 -65 47 -48 57 -64 61 -101 4 -37 1 -49 -22 -76 -34 -40
-71 -47 -164 -29 -41 8 -104 13 -140 10 -103 -6 -335 32 -351 57 -4 6 -11 10
-16 9 -14 -4 -54 11 -54 20 0 5 -10 8 -22 8 -13 0 -30 3 -38 6 -8 4 -199 40
-425 81 -225 41 -597 109 -825 151 -585 108 -628 115 -645 109 -9 -4 -15 -1
-15 7 0 11 -2 11 -9 0 -7 -12 -13 -12 -24 -3 -7 7 -16 10 -18 8 -9 -8 -60 -16
-56 -9 3 4 -14 9 -36 9 -79 2 -132 10 -154 22 -12 7 -43 15 -68 18 -25 4 -45
11 -45 16 0 5 -4 6 -10 3 -5 -3 -10 -3 -10 2 0 4 -16 8 -36 9 -20 0 -40 7 -45
15 -5 8 -9 10 -9 5 0 -5 -6 -4 -12 1 -7 6 -44 16 -83 23 -86 16 -125 49 -125
105 0 66 20 88 127 135 54 24 103 49 109 57 6 7 16 13 23 13 6 0 11 5 11 10 0
6 9 10 20 10 11 0 20 4 20 9 0 5 16 15 35 22 19 7 35 16 35 19 0 4 16 12 35
20 19 8 35 20 35 27 0 8 12 13 28 13 15 0 36 6 47 13 11 7 32 13 47 12 15 0
24 3 21 9 -4 5 1 7 10 3 10 -3 17 -2 17 4 0 6 4 7 10 4 5 -3 23 1 40 10 17 9
37 14 43 12 6 -2 21 5 32 15 13 13 30 18 52 16 17 -2 30 -1 28 3 -5 8 46 32
53 24 3 -3 -1 -5 -8 -5 -7 0 -11 -2 -8 -5 9 -10 38 7 31 18 -3 6 -1 7 5 3 6
-4 24 0 40 8 16 8 33 12 37 8 5 -4 5 2 1 12 -5 15 -4 17 8 7 11 -9 15 -8 20 4
3 8 10 15 16 15 6 0 8 -4 5 -10 -3 -5 0 -7 9 -4 8 3 17 12 20 20 3 7 12 11 20
8 8 -3 17 0 21 5 3 6 11 9 16 6 5 -4 9 -1 9 4 0 6 -10 11 -22 11 -45 1 5 17
69 23 57 6 219 63 251 89 6 6 12 7 12 2 0 -4 10 2 23 14 13 12 26 19 30 16 4
-4 13 -1 22 6 8 7 15 9 15 4 0 -4 7 1 16 12 8 10 13 13 9 7 -8 -16 11 -17 20
-2 4 6 -3 13 -15 16 -20 5 -20 6 7 23 41 25 245 234 266 272 10 18 21 32 26
31 14 -3 30 62 80 334 28 150 56 281 63 292 15 24 64 50 93 51 11 0 34 -9 51
-19z m-2458 -615 c49 -26 112 -99 107 -124 -2 -13 0 -20 6 -17 5 4 6 11 3 17
-4 6 2 6 15 -1 11 -7 21 -17 21 -23 0 -6 3 -9 6 -5 9 8 64 -44 58 -55 -3 -5
-1 -7 4 -6 13 4 222 -161 222 -175 0 -6 3 -8 6 -4 4 3 32 -13 63 -37 31 -23
85 -62 121 -86 90 -60 109 -78 116 -117 11 -58 -28 -117 -82 -123 -57 -6 -98
16 -279 155 -175 133 -215 167 -208 178 3 7 3 9 -2 5 -11 -11 -47 11 -39 24 4
6 3 8 -3 5 -13 -8 -36 17 -25 28 4 5 2 5 -4 2 -14 -8 -66 31 -58 44 3 5 2 8
-3 7 -4 -2 -25 10 -45 27 -28 22 -34 32 -26 42 8 10 7 12 -6 7 -9 -3 -16 -1
-16 6 0 6 -3 9 -7 7 -10 -6 -34 19 -26 27 4 3 -1 6 -10 6 -9 0 -29 18 -43 40
-21 31 -25 47 -20 73 13 70 90 106 154 73z m2557 -396 c3 -5 1 -10 -4 -10 -6
0 -11 5 -11 10 0 6 2 10 4 10 3 0 8 -4 11 -10z m215 -290 c0 -5 -2 -10 -4 -10
-3 0 -8 5 -11 10 -3 6 -1 10 4 10 6 0 11 -4 11 -10z m370 -342 c0 -6 -6 -5
-15 2 -8 7 -15 14 -15 16 0 2 7 1 15 -2 8 -4 15 -11 15 -16z m234 -4554 c19
-7 21 -39 4 -51 -8 -5 1 -10 25 -13 60 -8 48 -24 -23 -31 -36 -3 -71 -8 -79
-10 -7 -2 -15 1 -18 7 -2 6 15 16 39 23 34 11 39 15 25 22 -20 12 -22 30 -5
47 14 14 12 14 32 6z m111 -123 c63 -28 155 -150 141 -186 -7 -19 -102 -61
-181 -79 -80 -18 -257 -16 -293 3 -52 28 -9 172 66 224 80 56 193 72 267 38z
m188 3 c9 -9 -4 -34 -18 -34 -16 0 -25 -34 -14 -51 14 -22 10 -49 -6 -49 -8 0
-15 4 -15 9 0 4 -15 28 -34 53 -23 30 -32 49 -26 59 7 11 13 9 33 -9 30 -28
33 -28 41 3 6 23 25 33 39 19z m-3288 -43 c6 -29 4 -318 -3 -338 -9 -27 -62
-25 -62 3 0 18 -14 18 -30 -1 -18 -22 -74 -29 -106 -13 -46 22 -74 73 -74 135
0 59 18 103 52 127 29 20 97 20 126 0 12 -8 22 -14 22 -12 1 2 2 29 4 61 1 34
8 62 15 67 22 13 50 -1 56 -29z m1868 15 c8 -12 8 -316 0 -347 -8 -29 -36 -33
-56 -8 -16 20 -19 21 -35 5 -47 -42 -125 -24 -162 37 -43 69 -16 194 46 217
37 14 87 12 110 -5 31 -23 34 -19 34 49 0 65 8 79 40 68 8 -3 18 -10 23 -16z
m1681 14 c16 -6 26 -17 26 -29 0 -16 -8 -20 -37 -23 -33 -3 -38 -6 -41 -32 -2
-18 0 -26 7 -22 15 10 51 -12 51 -30 0 -8 -13 -17 -30 -20 l-30 -6 0 -103 c0
-81 -3 -105 -16 -116 -11 -9 -20 -10 -32 -2 -14 8 -18 30 -20 116 -3 101 -4
106 -25 109 -34 5 -36 45 -3 54 21 5 26 12 26 39 0 57 61 89 124 65z m1291
-14 c11 -17 16 -45 15 -88 -1 -35 -1 -70 -1 -78 1 -8 20 5 49 33 50 49 71 57
91 33 10 -12 5 -22 -22 -53 l-35 -38 44 -71 c44 -71 48 -96 17 -108 -21 -8
-38 7 -76 71 -17 29 -35 53 -38 53 -14 0 -27 -27 -33 -65 -9 -53 -27 -71 -55
-56 -20 11 -21 19 -21 186 0 144 3 176 16 189 21 22 31 20 49 -8z m-4176 -4
c20 -38 -31 -71 -59 -37 -6 8 -9 23 -5 35 8 25 51 27 64 2z m1425 -4 c3 -13 6
-42 6 -65 l0 -42 28 15 c43 22 96 18 131 -12 59 -49 59 -173 1 -229 -38 -37
-105 -42 -139 -11 -18 16 -21 17 -27 3 -8 -21 -34 -30 -50 -16 -11 9 -14 51
-14 189 0 97 3 180 7 183 15 16 51 6 57 -15z m2631 2 c14 -44 -44 -69 -65 -29
-9 15 -8 24 1 35 18 21 57 18 64 -6z m-1964 -81 c-12 -24 -21 -54 -21 -66 0
-14 -6 -23 -16 -23 -13 0 -15 8 -12 42 3 38 1 42 -24 52 -30 11 -39 46 -13 46
8 0 15 -7 15 -15 0 -28 29 -28 51 0 32 39 43 17 20 -36z m-2496 -29 c33 -31
50 -83 35 -110 -10 -18 -20 -20 -100 -20 -100 0 -111 -9 -65 -55 31 -31 51
-31 97 0 50 34 70 33 66 -2 -4 -40 -77 -76 -136 -69 -81 11 -122 58 -122 141
0 99 52 149 148 142 37 -3 59 -10 77 -27z m271 -3 c13 -15 21 -34 18 -42 -9
-22 -48 -18 -69 5 -25 27 -80 24 -80 -4 0 -14 16 -24 69 -41 92 -30 112 -59
85 -119 -29 -64 -171 -70 -219 -9 -23 29 -22 41 3 57 13 9 23 4 46 -22 32 -34
65 -41 95 -19 28 21 9 43 -54 62 -71 21 -100 46 -100 83 0 57 43 84 124 79 49
-3 63 -8 82 -30z m134 13 c17 -31 7 -249 -11 -261 -19 -12 -25 -11 -43 7 -13
12 -16 39 -16 133 0 78 4 121 12 129 18 18 46 14 58 -8z m214 5 c26 -14 30
-14 40 1 7 9 21 15 32 12 18 -3 19 -14 22 -160 l3 -157 -29 -33 c-26 -29 -36
-32 -93 -35 -85 -5 -134 18 -134 62 0 39 23 43 59 10 51 -48 126 -21 126 46
l0 30 -26 -20 c-48 -38 -121 -23 -155 31 -16 27 -19 46 -17 102 3 62 7 71 36
97 37 33 89 38 136 14z m204 -1 c9 -16 11 -16 33 0 38 27 96 21 130 -13 28
-29 29 -32 29 -134 0 -83 -3 -107 -16 -118 -11 -9 -20 -10 -32 -2 -13 8 -18
31 -23 104 -3 52 -9 100 -13 107 -4 7 -20 12 -36 12 -46 0 -60 -31 -60 -127 0
-73 -2 -84 -21 -93 -41 -22 -49 1 -49 140 0 69 3 130 7 133 12 13 42 7 51 -9z
m432 1 c49 -25 77 -104 48 -133 -7 -7 -44 -12 -95 -12 -73 0 -83 -2 -83 -18 0
-56 77 -77 124 -33 25 24 56 25 63 4 8 -23 -50 -70 -95 -78 -53 -9 -101 7
-138 46 -26 27 -29 37 -29 94 0 69 20 109 66 132 33 17 104 16 139 -2z m851
-7 c6 -12 24 -57 38 -102 l27 -80 36 100 c27 76 40 100 55 102 11 2 25 -4 32
-12 10 -11 0 -45 -49 -173 -71 -185 -87 -206 -159 -201 -42 3 -46 5 -46 28 0
18 6 25 20 26 11 1 27 2 36 3 9 1 21 12 27 26 10 22 5 42 -37 148 -36 89 -46
127 -40 140 13 24 46 21 60 -5z m1267 6 c8 -14 10 -14 21 0 31 37 121 4 105
-39 -6 -14 -14 -16 -45 -11 -43 7 -69 -11 -70 -47 -3 -127 -6 -148 -21 -163
-12 -13 -20 -14 -37 -5 -20 11 -21 20 -21 131 0 65 3 125 6 134 8 21 50 21 62
0z m343 -10 c33 -29 51 -78 39 -109 -9 -24 -12 -25 -100 -25 -100 0 -111 -9
-65 -55 31 -31 51 -31 97 0 40 27 53 30 63 15 14 -22 -9 -53 -51 -72 -88 -38
-181 1 -202 84 -18 70 5 139 57 172 36 23 132 17 162 -10z m293 -5 c22 -19 38
-43 42 -65 10 -55 -5 -64 -108 -64 -88 0 -89 0 -83 -22 8 -28 41 -58 65 -58 9
0 34 11 54 25 49 33 68 33 64 -2 -5 -42 -49 -68 -116 -67 -95 0 -142 47 -142
142 0 34 7 59 23 83 29 43 60 59 119 59 39 0 54 -6 82 -31z m133 11 c5 -19 7
-20 23 -5 27 25 91 30 127 12 78 -41 86 -186 14 -251 -27 -25 -103 -26 -129
-3 -10 9 -21 17 -25 17 -3 0 -7 -30 -9 -67 -3 -58 -6 -68 -22 -71 -39 -8 -46
22 -46 191 0 90 4 167 10 178 14 25 50 25 57 -1z m311 8 c8 -8 12 -51 12 -129
0 -94 -3 -121 -16 -133 -18 -18 -24 -19 -43 -7 -19 12 -29 228 -12 260 13 23
40 28 59 9z m693 -11 c26 -17 34 -30 34 -52 0 -40 -30 -45 -62 -11 -57 62
-140 6 -118 -81 17 -68 75 -84 118 -33 45 52 93 30 62 -29 -39 -77 -198 -71
-239 8 -37 70 -9 176 54 208 41 21 113 16 151 -10z m287 3 c44 -27 66 -80 59
-144 -4 -41 -11 -55 -40 -82 -47 -44 -96 -52 -155 -28 -54 23 -82 68 -82 134
0 57 16 88 59 117 44 30 113 31 159 3z m152 5 c11 -13 15 -13 33 0 28 20 87
19 115 -1 21 -14 25 -14 47 0 37 24 91 20 120 -9 24 -23 25 -31 25 -133 0 -88
-3 -112 -16 -123 -11 -9 -20 -10 -32 -2 -13 8 -18 33 -23 114 -4 57 -7 105 -8
107 0 1 -14 2 -31 2 -40 0 -50 -23 -50 -119 0 -59 -4 -84 -16 -95 -18 -18 -23
-19 -44 -6 -11 7 -16 36 -20 112 -5 102 -5 103 -31 106 -41 5 -53 -21 -59
-121 -4 -69 -9 -92 -22 -100 -12 -8 -21 -7 -32 2 -13 11 -16 37 -16 141 0 69
3 130 7 133 11 12 40 8 53 -8z m-2600 -141 c-50 -179 -382 -224 -465 -63 -8
15 -15 32 -15 36 0 5 38 4 85 -1 112 -12 227 5 326 48 41 18 76 31 78 30 2 -2
-2 -25 -9 -50z m1889 -76 c12 -32 -21 -68 -47 -52 -36 23 -27 74 13 74 17 0
28 -7 34 -22z"/>
<path d="M7844 16193 c-75 -76 -1148 -1417 -1136 -1421 11 -3 2826 928 2932
971 22 8 2 15 -140 52 -91 23 -236 61 -324 84 -87 22 -184 44 -215 47 -31 2
-76 8 -101 11 -39 5 -42 7 -20 14 24 7 24 7 -5 8 -50 2 -238 48 -286 70 -60
28 -633 181 -678 181 -5 0 -17 -8 -27 -17z"/>
<path d="M12274 13814 c0 -20 11 -25 11 -6 0 4 3 12 7 18 4 6 1 11 -5 11 -7 0
-13 -11 -13 -23z"/>
<path d="M8090 13020 c0 -5 5 -10 11 -10 5 0 7 5 4 10 -3 6 -8 10 -11 10 -2 0
-4 -4 -4 -10z"/>
<path d="M7080 12206 c0 -2 7 -7 16 -10 8 -3 12 -2 9 4 -6 10 -25 14 -25 6z"/>
<path d="M7720 11670 c-9 -6 -10 -10 -3 -10 6 0 15 5 18 10 8 12 4 12 -15 0z"/>
<path d="M12083 10946 c0 -10 9 -11 34 -5 48 10 49 15 4 16 -25 1 -38 -3 -38
-11z"/>
<path d="M5343 8765 c0 -8 4 -12 9 -9 5 3 6 10 3 15 -9 13 -12 11 -12 -6z"/>
<path d="M9590 9253 c-87 -44 -169 -343 -186 -678 -7 -133 -3 -150 24 -123 6
6 15 8 19 4 4 -4 0 -12 -10 -17 -9 -6 -17 -15 -17 -22 0 -7 4 -6 10 3 8 12 10
12 11 -5 1 -29 23 44 79 265 28 107 65 251 84 320 42 158 51 229 34 253 -12
16 -15 16 -48 0z"/>
<path d="M10662 9218 c-32 -41 -81 -198 -98 -311 l-6 -48 60 2 60 2 21 56 c53
148 66 264 33 294 -22 20 -56 22 -70 5z"/>
<path d="M13294 9145 c-3 -8 -2 -19 2 -26 4 -7 3 -9 -2 -6 -13 7 -24 -1 -52
-37 -12 -15 -19 -32 -16 -37 3 -5 2 -9 -3 -8 -27 5 -44 -5 -59 -33 -19 -37
-35 -128 -22 -128 4 0 8 -8 8 -17 0 -16 -2 -16 -11 -3 -8 11 -9 3 -6 -32 3
-27 1 -48 -4 -48 -5 0 -9 -37 -8 -82 l0 -83 29 61 c51 110 170 454 170 490 0
11 -21 2 -26 -11z"/>
<path d="M12775 8990 c-3 -5 -1 -10 4 -10 6 0 11 5 11 10 0 6 -2 10 -4 10 -3
0 -8 -4 -11 -10z"/>
<path d="M10598 8842 c-45 -3 -48 -5 -48 -30 0 -15 -3 -36 -6 -47 -3 -13 3
-30 16 -45 l22 -25 24 28 c22 25 33 67 18 67 -3 0 -15 -10 -25 -22 l-20 -23 6
25 c5 20 4 22 -5 10 -10 -13 -11 -13 -7 0 2 10 15 15 39 14 29 -1 36 3 45 26
7 19 7 26 -1 26 -6 -1 -32 -2 -58 -4z m-28 -86 c0 -21 21 -31 31 -15 5 8 9 9
9 3 0 -6 -6 -16 -13 -22 -10 -9 -17 -6 -30 8 -19 23 -22 40 -7 40 6 0 10 -6
10 -14z"/>
<path d="M10550 8686 c0 -2 7 -7 16 -10 8 -3 12 -2 9 4 -6 10 -25 14 -25 6z"/>
<path d="M9397 8406 c-5 -15 -6 -31 -3 -34 8 -8 18 25 14 45 -3 13 -6 10 -11
-11z"/>
<path d="M11640 8410 c-64 -33 -171 -172 -183 -236 -2 -10 -11 -35 -20 -54
-18 -41 -47 -176 -47 -219 0 -108 53 -200 108 -186 40 10 77 50 107 117 30 66
44 141 78 416 26 203 27 199 -43 162z"/>
<path d="M13869 8252 c-35 -44 -85 -107 -110 -139 l-46 -59 24 -48 c18 -35 22
-51 14 -59 -18 -18 -13 -25 34 -42 54 -21 103 -14 144 21 41 34 55 83 46 158
-4 34 -10 98 -14 144 -4 46 -13 88 -18 93 -8 8 -30 -13 -74 -69z"/>
<path d="M10256 8175 c-3 -8 -1 -15 4 -15 6 0 10 7 10 15 0 8 -2 15 -4 15 -2
0 -6 -7 -10 -15z"/>
<path d="M10281 8174 c0 -11 3 -14 6 -6 3 7 2 16 -1 19 -3 4 -6 -2 -5 -13z"/>
<path d="M10260 8130 c0 -6 -5 -10 -12 -10 -6 0 -20 -8 -31 -17 -20 -17 -20
-17 -14 2 6 15 1 14 -18 -8 -14 -15 -25 -24 -25 -20 -1 4 -11 -10 -23 -32 -12
-22 -47 -78 -78 -125 -127 -191 -145 -340 -42 -340 20 0 50 9 67 19 35 22 110
112 171 206 22 33 47 69 56 80 16 18 16 27 3 100 -8 44 -17 94 -19 112 -5 28
-35 57 -35 33z"/>
<path d="M7629 8023 c-35 -21 -84 -96 -111 -168 -19 -51 -22 -81 -22 -205 -1
-139 0 -147 27 -202 15 -31 39 -64 54 -73 38 -26 94 -30 131 -11 140 72 173
534 47 645 -40 35 -84 40 -126 14z"/>
<path d="M13999 7353 c-11 -15 -11 -16 0 -6 7 6 20 9 29 6 10 -4 13 -2 8 5
-10 17 -21 15 -37 -5z"/>
<path d="M13946 7341 c-15 -16 -15 -19 -2 -24 9 -4 18 -1 22 5 5 7 2 8 -6 3
-8 -5 -11 -3 -8 6 3 8 11 13 17 11 7 -1 10 2 6 8 -8 13 -9 13 -29 -9z"/>
<path d="M13933 7295 c0 -8 4 -12 9 -9 5 3 6 10 3 15 -9 13 -12 11 -12 -6z"/>
<path d="M8715 5946 c-17 -7 -39 -10 -50 -6 -11 4 -26 3 -34 -4 -12 -9 -13 -8
-6 4 6 12 5 13 -6 3 -16 -15 -33 -17 -24 -3 3 6 -1 7 -9 4 -9 -3 -13 -11 -10
-16 4 -6 -4 -5 -16 2 -17 9 -21 9 -15 0 4 -7 2 -10 -6 -8 -8 1 -26 -6 -41 -16
-16 -10 -35 -16 -43 -12 -11 4 -14 2 -9 -6 5 -8 2 -9 -9 -5 -9 3 -19 2 -22 -4
-4 -5 -10 -7 -15 -4 -5 3 -12 0 -16 -6 -5 -8 -3 -9 6 -4 9 6 11 4 6 -4 -5 -7
-14 -10 -22 -7 -8 3 -14 1 -14 -5 0 -6 -7 -9 -15 -5 -8 3 -15 1 -15 -5 0 -6
-7 -8 -16 -5 -8 3 -13 2 -10 -3 3 -5 -8 -14 -24 -21 -17 -7 -30 -16 -30 -20 0
-5 -12 -13 -27 -19 -54 -23 -83 -42 -83 -57 0 -7 -5 -14 -11 -14 -5 0 -8 -4
-5 -9 3 -5 -1 -14 -9 -21 -8 -7 -15 -18 -15 -25 0 -7 -6 -18 -14 -24 -9 -8
-13 -29 -10 -66 2 -43 -1 -57 -14 -64 -15 -9 -14 -12 7 -30 13 -12 20 -21 16
-21 -4 0 2 -8 13 -19 12 -10 19 -21 15 -25 -3 -3 2 -6 13 -6 16 0 17 -2 4 -11
-12 -8 -10 -9 7 -4 12 3 30 1 40 -5 16 -9 406 -83 955 -180 159 -29 269 -39
224 -21 -19 7 -18 8 5 15 13 5 28 7 33 7 5 -1 6 5 3 14 -4 8 -2 15 3 15 5 0
12 10 16 22 4 13 14 28 23 35 15 11 14 12 -1 18 -26 10 -22 22 10 33 25 8 27
12 27 69 0 34 -3 59 -7 56 -5 -2 -8 0 -8 6 0 5 -19 28 -42 50 -36 34 -40 43
-28 51 13 8 12 10 -3 10 -10 0 -16 4 -13 9 3 4 -6 13 -20 20 -19 8 -25 17 -21
32 4 16 3 18 -9 8 -13 -11 -18 -6 -15 15 2 11 -39 56 -52 56 -5 0 1 -9 14 -21
l24 -20 -27 17 c-16 9 -28 26 -29 38 0 21 0 21 -9 -1 -11 -27 -16 -28 -24 -7
-4 10 -2 13 7 8 9 -5 9 -4 0 7 -7 7 -13 21 -13 30 0 10 -13 27 -28 37 -15 11
-49 41 -75 66 -27 25 -51 45 -55 44 -15 -3 -62 15 -62 24 0 5 -5 6 -10 3 -6
-4 -34 -2 -63 4 -97 18 -161 20 -192 7z"/>
<path d="M9390 5546 c0 -2 7 -7 16 -10 8 -3 12 -2 9 4 -6 10 -25 14 -25 6z"/>
<path d="M9460 5480 c0 -5 5 -10 11 -10 5 0 7 5 4 10 -3 6 -8 10 -11 10 -2 0
-4 -4 -4 -10z"/>
<path d="M6605 6370 c10 -11 20 -20 23 -20 3 0 -3 9 -13 20 -10 11 -20 20 -23
20 -3 0 3 -9 13 -20z"/>
<path d="M6655 6310 c3 -5 16 -15 28 -21 l22 -11 -22 21 c-23 22 -39 28 -28
11z"/>
<path d="M9896 779 c-69 -54 6 -160 85 -118 48 25 43 110 -8 130 -35 13 -47
11 -77 -12z"/>
<path d="M10136 781 c-22 -24 -18 -49 9 -67 18 -12 24 -11 43 2 26 18 28 46 6
68 -21 21 -37 20 -58 -3z"/>
<path d="M6882 690 c-44 -18 -56 -100 -21 -144 45 -57 109 -17 109 69 0 25 -8
43 -25 60 -26 27 -29 28 -63 15z"/>
<path d="M8752 690 c-66 -27 -47 -170 23 -170 63 0 90 106 40 155 -26 27 -29
28 -63 15z"/>
<path d="M9170 682 c-33 -27 -39 -99 -10 -134 27 -36 62 -36 89 -2 30 38 28
98 -4 129 -29 30 -45 31 -75 7z"/>
<path d="M7184 692 c-11 -7 -34 -45 -34 -56 0 -3 27 -6 60 -6 52 0 60 3 60 18
0 37 -55 65 -86 44z"/>
<path d="M7845 675 c-50 -49 -23 -147 40 -147 63 0 90 98 40 147 -13 14 -31
25 -40 25 -9 0 -27 -11 -40 -25z"/>
<path d="M8447 682 c-34 -38 -22 -52 43 -52 66 0 77 13 40 50 -25 25 -62 26
-83 2z"/>
<path d="M10890 680 c-37 -37 -26 -50 40 -50 52 0 60 3 60 18 0 25 -31 52 -58
52 -12 0 -31 -9 -42 -20z"/>
<path d="M11194 692 c-11 -7 -34 -45 -34 -56 0 -3 27 -6 60 -6 53 0 60 2 60
19 0 39 -53 65 -86 43z"/>
<path d="M11485 676 c-50 -50 -22 -156 42 -156 48 0 78 83 49 138 -9 18 -21
32 -25 32 -5 0 -16 3 -25 6 -9 3 -26 -5 -41 -20z"/>
<path d="M12620 682 c-33 -27 -39 -99 -10 -134 56 -72 141 3 110 97 -18 54
-59 70 -100 37z"/>
</g>
</svg>
